<?xml version="1.0" encoding="utf-8"?>
<!-- Generator: Adobe Illustrator 14.0.0, SVG Export Plug-In . SVG Version: 6.00 Build 43363)  -->
<!DOCTYPE svg PUBLIC "-//W3C//DTD SVG 1.1//EN" "http://www.w3.org/Graphics/SVG/1.1/DTD/svg11.dtd">
<svg version="1.1" id="Ebene_1" xmlns="http://www.w3.org/2000/svg" xmlns:xlink="http://www.w3.org/1999/xlink" x="0px" y="0px"
	 width="1024px" height="399px" viewBox="0 0 1024 399" enable-background="new 0 0 1024 399" xml:space="preserve">
<polyline fill-rule="evenodd" clip-rule="evenodd" fill="#E64415" points="768.138,0.401 770.895,2.327 645.681,210.506 
	492.881,399.378 490.132,397.448 615.347,189.265 768.138,0.401 "/>
<polyline points="0.381,230.183 12.012,230.183 12.012,184.888 12.184,184.888 35.351,230.183 50.186,230.183 50.186,169.618 
	38.556,169.618 38.556,214.908 38.392,214.908 15.312,169.618 0.381,169.618 0.381,230.183 "/>
<path fill-rule="evenodd" clip-rule="evenodd" d="M76.488,208.317c0,16.223,9.193,22.908,24.734,22.908
	c15.525,0,24.726-6.686,24.726-22.908v-38.7h-12.147v34.969c0,10.321-3.3,17.093-12.579,17.093c-9.296,0-12.587-6.771-12.587-17.093
	v-34.969H76.488V208.317 M87.249,163.639h10.063v-10.067H87.249V163.639z M105.117,163.639h10.071v-10.067h-10.071V163.639z"/>
<path fill-rule="evenodd" clip-rule="evenodd" d="M152.027,230.183h12.147v-25.161h3.903c5.118,0,6.686,1.736,8.409,6.251
	l7.289,18.91h13.543l-9.718-23.688c-1.223-2.692-3.127-5.983-6.427-6.246v-0.177c7.728-1.042,12.5-6.935,12.5-14.056
	c0-16.83-15.533-16.399-28.551-16.399h-13.095V230.183 M164.174,179.163h3.989c6.074,0,12.845,0.607,12.845,7.896
	c0,7.551-6.858,8.417-12.845,8.417h-3.989V179.163z"/>
<polyline points="222.853,230.183 234.475,230.183 234.475,184.888 234.656,184.888 257.813,230.183 272.649,230.183 
	272.649,169.618 261.019,169.618 261.019,214.908 260.855,214.908 237.774,169.618 222.853,169.618 222.853,230.183 "/>
<path fill-rule="evenodd" clip-rule="evenodd" d="M301.958,230.183h21.168c7.633,0,21.34-2.266,21.34-17.532
	c0-7.452-5.634-13.013-13.879-13.789v-0.176c7.203-1.305,12.053-6.333,12.053-13.535c0-13.276-11.699-15.533-19.513-15.533h-21.168
	V230.183 M314.105,179.163h4.687c5.548,0,11.708,0.521,11.708,7.551c0,6.246-6.332,7.375-11.458,7.375h-4.937V179.163z
	 M314.105,203.113h5.721c6.074,0,12.492,1.211,12.492,9.106c0,7.03-6.849,8.417-12.492,8.417h-5.721V203.113z"/>
<polyline points="372.172,230.183 408.081,230.183 408.081,220.637 384.32,220.637 384.32,203.635 405.91,203.635 405.91,194.089 
	384.32,194.089 384.32,179.163 407.917,179.163 407.917,169.618 372.172,169.618 372.172,230.183 "/>
<path fill-rule="evenodd" clip-rule="evenodd" d="M436.744,230.183h12.147v-25.161h3.903c5.118,0,6.677,1.736,8.417,6.251
	l7.289,18.91h13.535l-9.718-23.688c-1.214-2.692-3.119-5.983-6.418-6.246v-0.177c7.719-1.042,12.492-6.935,12.492-14.056
	c0-16.83-15.533-16.399-28.542-16.399h-13.104V230.183 M448.891,179.163h3.989c6.074,0,12.837,0.607,12.837,7.896
	c0,7.551-6.849,8.417-12.837,8.417h-3.989V179.163z"/>
<path d="M552.964,171.1c-5.213-1.56-10.77-2.524-17.791-2.524c-20.564,0-33.229,11.63-33.229,32.367
	c0,20.479,13.621,30.283,33.229,30.283c6.505,0,13.19-1.388,19.608-3.128v-32.622h-24.467v9.545h12.845v15.788
	c-2.085,0.525-4.687,0.87-7.986,0.87c-12.932,0-20.564-9.287-20.564-21.607c0-12.406,7.806-21.952,21.952-21.952
	c4.858,0,10.933,1.042,15.61,3.214L552.964,171.1"/>
<polyline points="706.264,230.183 717.877,230.183 717.877,180.378 718.058,180.206 734.366,230.183 745.997,230.183 
	762.306,180.206 762.478,180.206 762.478,230.183 774.1,230.183 774.1,169.618 754.664,169.618 740.268,215.52 740.096,215.52 
	725.69,169.618 706.264,169.618 706.264,230.183 "/>
<polyline points="801.471,230.183 837.388,230.183 837.388,220.637 813.618,220.637 813.618,203.635 835.217,203.635 
	835.217,194.089 813.618,194.089 813.618,179.163 837.215,179.163 837.215,169.618 801.471,169.618 801.471,230.183 "/>
<path d="M898.375,170.746c-4.429-1.473-9.287-2.171-14.491-2.171c-10.666,0-21.168,4.949-21.168,18.484
	c0,20.043,26.544,15.271,26.544,26.815c0,5.462-6.151,7.806-10.752,7.806c-4.772,0-9.546-1.482-13.707-3.739l-1.128,10.933
	c5.979,1.482,8.934,2.353,15.524,2.353c12.233,0,22.735-5.031,22.735-18.308c0-20.302-26.552-15.882-26.552-26.38
	c0-6.591,5.376-8.417,9.545-8.417c4.248,0,8.504,0.957,12.32,2.602L898.375,170.746"/>
<path d="M959.396,170.746c-4.42-1.473-9.278-2.171-14.482-2.171c-10.674,0-21.176,4.949-21.176,18.484
	c0,20.043,26.552,15.271,26.552,26.815c0,5.462-6.16,7.806-10.761,7.806c-4.772,0-9.545-1.482-13.706-3.739l-1.129,10.933
	c5.987,1.482,8.934,2.353,15.533,2.353c12.226,0,22.728-5.031,22.728-18.308c0-20.302-26.544-15.882-26.544-26.38
	c0-6.591,5.376-8.417,9.546-8.417c4.247,0,8.503,0.957,12.311,2.602L959.396,170.746"/>
<polyline points="988.465,230.183 1024.381,230.183 1024.381,220.637 1000.612,220.637 1000.612,203.635 1022.21,203.635 
	1022.21,194.089 1000.612,194.089 1000.612,179.163 1024.218,179.163 1024.218,169.618 988.465,169.618 988.465,230.183 "/>
</svg>
